<svg width="113" height="14" viewBox="0 0 113 14" fill="none" xmlns="http://www.w3.org/2000/svg">
<path d="M5.14286 7.28571C5.14286 7.13393 5.08036 6.99107 4.97321 6.88393L0.973214 2.88393C0.866071 2.77678 0.723214 2.71428 0.571429 2.71428C0.258929 2.71428 0 2.97321 0 3.28571V11.2857C0 11.5982 0.258929 11.8571 0.571429 11.8571C0.723214 11.8571 0.866071 11.7946 0.973214 11.6875L4.97321 7.6875C5.08036 7.58036 5.14286 7.4375 5.14286 7.28571ZM22.698 5.32C22.4953 4.94667 22.202 4.664 21.818 4.472C21.4447 4.26933 21.002 4.168 20.49 4.168C19.6047 4.168 18.8953 4.46133 18.362 5.048C17.8287 5.624 17.562 6.39733 17.562 7.368C17.562 8.40267 17.8393 9.21333 18.394 9.8C18.9593 10.376 19.7327 10.664 20.714 10.664C21.386 10.664 21.9513 10.4933 22.41 10.152C22.8793 9.81067 23.2207 9.32 23.434 8.68H19.962V6.664H25.914V9.208C25.7113 9.89067 25.3647 10.5253 24.874 11.112C24.394 11.6987 23.7807 12.1733 23.034 12.536C22.2873 12.8987 21.4447 13.08 20.506 13.08C19.3967 13.08 18.4047 12.84 17.53 12.36C16.666 11.8693 15.9887 11.192 15.498 10.328C15.018 9.464 14.778 8.47733 14.778 7.368C14.778 6.25867 15.018 5.272 15.498 4.408C15.9887 3.53333 16.666 2.856 17.53 2.376C18.394 1.88533 19.3807 1.64 20.49 1.64C21.834 1.64 22.9647 1.96533 23.882 2.616C24.81 3.26667 25.4233 4.168 25.722 5.32H22.698ZM35.8455 8.392C35.8455 8.648 35.8295 8.91467 35.7975 9.192H29.6055C29.6482 9.74667 29.8242 10.1733 30.1335 10.472C30.4535 10.76 30.8428 10.904 31.3015 10.904C31.9842 10.904 32.4588 10.616 32.7255 10.04H35.6375C35.4882 10.6267 35.2162 11.1547 34.8215 11.624C34.4375 12.0933 33.9522 12.4613 33.3655 12.728C32.7788 12.9947 32.1228 13.128 31.3975 13.128C30.5228 13.128 29.7442 12.9413 29.0615 12.568C28.3788 12.1947 27.8455 11.6613 27.4615 10.968C27.0775 10.2747 26.8855 9.464 26.8855 8.536C26.8855 7.608 27.0722 6.79733 27.4455 6.104C27.8295 5.41067 28.3628 4.87733 29.0455 4.504C29.7282 4.13067 30.5122 3.944 31.3975 3.944C32.2615 3.944 33.0295 4.12533 33.7015 4.488C34.3735 4.85067 34.8962 5.368 35.2695 6.04C35.6535 6.712 35.8455 7.496 35.8455 8.392ZM33.0455 7.672C33.0455 7.20267 32.8855 6.82933 32.5655 6.552C32.2455 6.27467 31.8455 6.136 31.3655 6.136C30.9068 6.136 30.5175 6.26933 30.1975 6.536C29.8882 6.80267 29.6962 7.18133 29.6215 7.672H33.0455ZM42.2649 10.68V13H40.8729C39.8809 13 39.1075 12.76 38.5529 12.28C37.9982 11.7893 37.7209 10.9947 37.7209 9.896V6.344H36.6329V4.072H37.7209V1.896H40.4569V4.072H42.2489V6.344H40.4569V9.928C40.4569 10.1947 40.5209 10.3867 40.6489 10.504C40.7769 10.6213 40.9902 10.68 41.2889 10.68H42.2649ZM48.5555 3.144C48.0755 3.144 47.6808 3.00533 47.3715 2.728C47.0728 2.44 46.9235 2.088 46.9235 1.672C46.9235 1.24533 47.0728 0.893333 47.3715 0.615999C47.6808 0.327999 48.0755 0.183999 48.5555 0.183999C49.0248 0.183999 49.4088 0.327999 49.7075 0.615999C50.0168 0.893333 50.1715 1.24533 50.1715 1.672C50.1715 2.088 50.0168 2.44 49.7075 2.728C49.4088 3.00533 49.0248 3.144 48.5555 3.144ZM49.9155 4.072V13H47.1795V4.072H49.9155ZM57.3383 3.976C58.3836 3.976 59.2156 4.31733 59.8343 5C60.4636 5.672 60.7783 6.6 60.7783 7.784V13H58.0583V8.152C58.0583 7.55467 57.9036 7.09067 57.5943 6.76C57.2849 6.42933 56.8689 6.264 56.3463 6.264C55.8236 6.264 55.4076 6.42933 55.0983 6.76C54.7889 7.09067 54.6343 7.55467 54.6343 8.152V13H51.8983V4.072H54.6343V5.256C54.9116 4.86133 55.2849 4.552 55.7543 4.328C56.2236 4.09333 56.7516 3.976 57.3383 3.976ZM71.0461 10.68V13H69.6541C68.6621 13 67.8888 12.76 67.3341 12.28C66.7795 11.7893 66.5021 10.9947 66.5021 9.896V6.344H65.4141V4.072H66.5021V1.896H69.2381V4.072H71.0301V6.344H69.2381V9.928C69.2381 10.1947 69.3021 10.3867 69.4301 10.504C69.5581 10.6213 69.7715 10.68 70.0701 10.68H71.0461ZM76.6341 13.128C75.7595 13.128 74.9701 12.9413 74.2661 12.568C73.5728 12.1947 73.0235 11.6613 72.6181 10.968C72.2235 10.2747 72.0261 9.464 72.0261 8.536C72.0261 7.61867 72.2288 6.81333 72.6341 6.12C73.0395 5.416 73.5941 4.87733 74.2981 4.504C75.0021 4.13067 75.7915 3.944 76.6661 3.944C77.5408 3.944 78.3301 4.13067 79.0341 4.504C79.7381 4.87733 80.2928 5.416 80.6981 6.12C81.1035 6.81333 81.3061 7.61867 81.3061 8.536C81.3061 9.45333 81.0981 10.264 80.6821 10.968C80.2768 11.6613 79.7168 12.1947 79.0021 12.568C78.2981 12.9413 77.5088 13.128 76.6341 13.128ZM76.6341 10.76C77.1568 10.76 77.5995 10.568 77.9621 10.184C78.3355 9.8 78.5221 9.25067 78.5221 8.536C78.5221 7.82133 78.3408 7.272 77.9781 6.888C77.6261 6.504 77.1888 6.312 76.6661 6.312C76.1328 6.312 75.6901 6.504 75.3381 6.888C74.9861 7.26133 74.8101 7.81067 74.8101 8.536C74.8101 9.25067 74.9808 9.8 75.3221 10.184C75.6741 10.568 76.1115 10.76 76.6341 10.76ZM91.5736 4.072V13H88.8376V11.784C88.5603 12.1787 88.1816 12.4987 87.7016 12.744C87.2323 12.9787 86.7096 13.096 86.1336 13.096C85.451 13.096 84.8483 12.9467 84.3256 12.648C83.803 12.3387 83.3976 11.896 83.1096 11.32C82.8216 10.744 82.6776 10.0667 82.6776 9.288V4.072H85.3976V8.92C85.3976 9.51733 85.5523 9.98133 85.8616 10.312C86.171 10.6427 86.587 10.808 87.1096 10.808C87.643 10.808 88.0643 10.6427 88.3736 10.312C88.683 9.98133 88.8376 9.51733 88.8376 8.92V4.072H91.5736ZM92.9949 8.536C92.9949 7.608 93.1815 6.79733 93.5549 6.104C93.9389 5.41067 94.4669 4.87733 95.1389 4.504C95.8215 4.13067 96.6002 3.944 97.4749 3.944C98.5949 3.944 99.5282 4.23733 100.275 4.824C101.032 5.41067 101.528 6.23733 101.763 7.304H98.8509C98.6055 6.62133 98.1309 6.28 97.4269 6.28C96.9255 6.28 96.5255 6.47733 96.2269 6.872C95.9282 7.256 95.7789 7.81067 95.7789 8.536C95.7789 9.26133 95.9282 9.82133 96.2269 10.216C96.5255 10.6 96.9255 10.792 97.4269 10.792C98.1309 10.792 98.6055 10.4507 98.8509 9.768H101.763C101.528 10.8133 101.032 11.6347 100.275 12.232C99.5175 12.8293 98.5842 13.128 97.4749 13.128C96.6002 13.128 95.8215 12.9413 95.1389 12.568C94.4669 12.1947 93.9389 11.6613 93.5549 10.968C93.1815 10.2747 92.9949 9.464 92.9949 8.536ZM108.714 3.976C109.738 3.976 110.56 4.31733 111.178 5C111.797 5.672 112.106 6.6 112.106 7.784V13H109.386V8.152C109.386 7.55467 109.232 7.09067 108.922 6.76C108.613 6.42933 108.197 6.264 107.674 6.264C107.152 6.264 106.736 6.42933 106.426 6.76C106.117 7.09067 105.962 7.55467 105.962 8.152V13H103.226V1.16H105.962V5.272C106.24 4.87733 106.618 4.56267 107.098 4.328C107.578 4.09333 108.117 3.976 108.714 3.976Z" fill="#FFD723"/>
<path d="M5.71875 14.6H14.2564V15.4H5.71875V14.6Z" fill="#FFD723"/>
<path d="M14.25 14.6H113.018V15.4H14.25V14.6Z" fill="#FFD723"/>
</svg>
